<svg width="455" height="460" viewBox="0 0 455 460" fill="none" xmlns="http://www.w3.org/2000/svg">
    <rect width="219" height="372" rx="109.5" fill="black"/>
    <rect x="236" y="88" width="219" height="372" rx="109.5" fill="#F1F1F1"/>
    <path d="M15.1623 227.171L33.9449 144.433H93.1245L89.1294 162.032H52.2153L48.8168 177.003H81.9809L77.9857 194.602H44.8216L37.4279 227.171H15.1623ZM124.296 144.433L105.514 227.171H83.2482L102.031 144.433H124.296ZM129.325 162.032L133.32 144.433H206.445L202.45 162.032H176.903L162.115 227.171H140.084L154.872 162.032H129.325Z" fill="white"/>
    <path d="M248.162 326.171L266.945 243.433H326.125L322.129 261.032H285.215L281.817 276.003H314.981L310.986 293.602H277.822L270.428 326.171H248.162ZM357.296 243.433L338.514 326.171H316.248L335.031 243.433H357.296ZM362.325 261.032L366.32 243.433H439.445L435.45 261.032H409.903L395.115 326.171H373.084L387.872 261.032H362.325Z" fill="black"/>
</svg>
